<svg xmlns="http://www.w3.org/2000/svg" width="96" height="96" viewBox="0 0 96 96" shape-rendering="crispEdges"><title>utility</title><polygon points="6,67 49,43 91,63 50,86" fill="#807489"/><polygon points="8,65 49,45 89,65 49,84" fill="#b3a5ad"/><polygon points="8,43 48,23 76,37 36,57" fill="#c9c2a7"/><polygon points="8,43 36,57 36,81 8,67" fill="#b2a993"/><polygon points="36,57 76,37 76,61 36,81" fill="#eddfbc"/><polyline points="8,67 36,81 76,61" fill="none" stroke="#514b60" stroke-width="2" stroke-linejoin="miter"/><polyline points="10,42 48,24 74,37" fill="none" stroke="#fff0c9" stroke-width="2" stroke-linejoin="miter"/><rect x="42" y="53" width="12" height="2" fill="#514b60"/><rect x="40" y="55" width="16" height="21" fill="#514b60"/><rect x="42" y="56" width="12" height="18" fill="#7696a3"/><rect x="44" y="58" width="8" height="14" fill="#476a82"/><rect x="46" y="60" width="4" height="5" fill="#e5b361"/><rect x="51" y="66" width="2" height="2" fill="#fff0c9"/><rect x="38" y="76" width="20" height="3" fill="#807489"/><rect x="60" y="44" width="10" height="12" fill="#514b60"/><rect x="62" y="46" width="6" height="8" fill="#e5b361"/><rect x="64" y="46" width="2" height="8" fill="#fff0c9"/><rect x="22" y="51" width="8" height="9" fill="#476a82"/><rect x="24" y="53" width="4" height="5" fill="#e5b361"/><polygon points="60,62 78,53 88,58 70,67" fill="#7696a3"/><polygon points="60,62 70,67 70,81 60,76" fill="#807489"/><polygon points="70,67 88,58 88,72 70,81" fill="#476a82"/><polyline points="60,76 70,81 88,72" fill="none" stroke="#514b60" stroke-width="2" stroke-linejoin="miter"/><rect x="63" y="52" width="2" height="15" fill="#eddfbc"/><rect x="66" y="51" width="2" height="15" fill="#eddfbc"/><rect x="69" y="50" width="2" height="15" fill="#eddfbc"/><rect x="72" y="49" width="2" height="15" fill="#eddfbc"/><rect x="75" y="48" width="2" height="15" fill="#eddfbc"/><rect x="78" y="47" width="2" height="15" fill="#eddfbc"/><rect x="8" y="60" width="20" height="5" fill="#514b60"/><rect x="8" y="60" width="20" height="2" fill="#7696a3"/><rect x="8" y="61" width="4" height="14" fill="#7696a3"/><rect x="59" y="30" width="11" height="8" fill="#476a82"/></svg>
